<?xml version="1.0" encoding="UTF-8"?>
<svg width="200" height="160" viewBox="0 0 200 160" fill="none" xmlns="http://www.w3.org/2000/svg">
  <rect width="200" height="160" fill="#F0F0F0"/>
  <path d="M100 40C88.9543 40 80 48.9543 80 60C80 71.0457 88.9543 80 100 80C111.046 80 120 71.0457 120 60C120 48.9543 111.046 40 100 40Z" fill="#BDBDBD"/>
  <path d="M60 120C60 98.9086 77.9086 80 100 80C122.091 80 140 98.9086 140 120V140H60V120Z" fill="#BDBDBD"/>
  <rect x="60" y="40" width="80" height="5" rx="2.5" fill="#BDBDBD"/>
  <rect x="70" y="60" width="60" height="5" rx="2.5" fill="#E0E0E0"/>
  <rect x="75" y="100" width="50" height="5" rx="2.5" fill="#E0E0E0"/>
  <rect x="80" y="115" width="40" height="5" rx="2.5" fill="#E0E0E0"/>
</svg>
