<?xml version="1.0" encoding="UTF-8" standalone="no"?>
<svg width="400" height="300" xmlns="http://www.w3.org/2000/svg">
  <rect width="400" height="300" fill="#f0f0f0"/>
  
  <!-- Vertices -->
  <circle cx="80" cy="90" r="15" fill="#F44336" stroke="#000" stroke-width="2"/>
  <circle cx="320" cy="90" r="15" fill="#F44336" stroke="#000" stroke-width="2"/>
  <circle cx="80" cy="210" r="15" fill="#F44336" stroke="#000" stroke-width="2"/>
  <circle cx="320" cy="210" r="15" fill="#F44336" stroke="#000" stroke-width="2"/>
  
  <!-- Edges -->
  <path d="M80,90 C200,30 200,30 320,90" stroke="#2196F3" stroke-width="3" fill="none"/>
  <line x1="80" y1="90" x2="320" y2="90" stroke="#2196F3" stroke-width="3"/>
  <path d="M80,90 C200,150 200,150 320,90" stroke="#2196F3" stroke-width="3" fill="none"/>
  <line x1="80" y1="90" x2="80" y2="210" stroke="#2196F3" stroke-width="3"/>
  <line x1="320" y1="90" x2="320" y2="210" stroke="#2196F3" stroke-width="3"/>
  <path d="M80,210 C200,270 200,270 320,210" stroke="#2196F3" stroke-width="3" fill="none"/>
  <line x1="80" y1="210" x2="320" y2="210" stroke="#2196F3" stroke-width="3"/>
  
  <!-- Labels -->
  <text x="200" y="45" font-family="Arial" font-size="16" fill="#000">A</text>
  <text x="200" y="80" font-family="Arial" font-size="16" fill="#000">B</text>
  <text x="200" y="135" font-family="Arial" font-size="16" fill="#000">C</text>
  <text x="60" y="150" font-family="Arial" font-size="16" fill="#000">D</text>
  <text x="340" y="150" font-family="Arial" font-size="16" fill="#000">E</text>
  <text x="200" y="255" font-family="Arial" font-size="16" fill="#000">F</text>
  <text x="200" y="195" font-family="Arial" font-size="16" fill="#000">G</text>
  
  <text x="200" y="280" font-family="Arial" font-size="14" text-anchor="middle" fill="#333">Euler's Graph of Königsberg</text>
</svg>
