<?xml version="1.0" encoding="UTF-8"?><!DOCTYPE svg PUBLIC "-//W3C//DTD SVG 1.1//EN" "http://www.w3.org/Graphics/SVG/1.1/DTD/svg11.dtd"><svg xmlns="http://www.w3.org/2000/svg" xmlns:xlink="http://www.w3.org/1999/xlink"><symbol id="accessibility" viewBox="0 0 24 24"><path d="M20.8,7a1.1,1.1,0,0,0-1.3-.8A31.3,31.3,0,0,1,12,7a31.3,31.3,0,0,1-7.5-.8A1.1,1.1,0,0,0,3.2,7,1,1,0,0,0,4,8.2,27.4,27.4,0,0,0,9,9V21a1,1,0,0,0,2,0V16h2v5a1,1,0,0,0,2,0V9a28.9,28.9,0,0,0,5-.8A1,1,0,0,0,20.8,7ZM12,6a2,2,0,1,0-2-2A2,2,0,0,0,12,6Z"/></symbol><symbol id="add-canvas" viewBox="0 0 24 24"><path d="M16.6,4.6l4.8,4.8a2,2,0,0,1,.6,1.4V18a2,2,0,0,1-2,2H4a2,2,0,0,1-2-2V6A2,2,0,0,1,4,4H15.2A2,2,0,0,1,16.6,4.6ZM9,9v2H7a1,1,0,0,0,0,2H9v2a.9.9,0,0,0,1,1,.9.9,0,0,0,1-1V13h2a1,1,0,0,0,0-2H11V9a.9.9,0,0,0-1-1A.9.9,0,0,0,9,9Zm8,2h3.5L15,5.5V9A2,2,0,0,0,17,11Z"/></symbol><symbol id="add-folder" viewBox="0 0 24 24"><path d="M20,6H12L10.59,4.59A2.0061,2.0061,0,0,0,9.17,4H4A1.9846,1.9846,0,0,0,2.01,6L2,18a1.9931,1.9931,0,0,0,2,2H20a2.0059,2.0059,0,0,0,2-2V8A2.0059,2.0059,0,0,0,20,6Zm-2,8H16v2a1,1,0,0,1-2,0V14H12a1,1,0,0,1,0-2h2V10a1,1,0,0,1,2,0v2h2a1,1,0,0,1,0,2Z"/></symbol><symbol id="add-image" viewBox="0 0 24 24"><path d="M21,5H19V3a.9.9,0,0,0-1-1h0a.9.9,0,0,0-1,1V5H15a.9.9,0,0,0-1,1h0a.9.9,0,0,0,1,1h2V9a.9.9,0,0,0,1,1h0a.9.9,0,0,0,1-1V7h2a.9.9,0,0,0,1-1h0A.9.9,0,0,0,21,5ZM16,9V8H15a2.1,2.1,0,0,1-2-2,1.7,1.7,0,0,1,.3-1H5A2,2,0,0,0,3,7V19a2,2,0,0,0,2,2H17a2,2,0,0,0,2-2V10.7a1.7,1.7,0,0,1-1,.3A2,2,0,0,1,16,9Zm0,10H6c-.4,0-.7-.5-.4-.8l2-2.6a.5.5,0,0,1,.8,0L10,18l2.6-3.5a.5.5,0,0,1,.8,0l3,3.7A.5.5,0,0,1,16,19Z"/></symbol><symbol id="analytics" viewBox="0 0 24 24"><path d="M6.5,21H3a1.1,1.1,0,0,1-1-1V10A1,1,0,0,1,3,9H6.5a.9.9,0,0,1,1,1V20A1,1,0,0,1,6.5,21ZM13.8,3H10.2a1.1,1.1,0,0,0-1,1V20a1.1,1.1,0,0,0,1,1h3.6a1.1,1.1,0,0,0,1-1V4A1.1,1.1,0,0,0,13.8,3ZM21,11H17.5a1,1,0,0,0-1,1v8a1.1,1.1,0,0,0,1,1H21a1.1,1.1,0,0,0,1-1V12A1,1,0,0,0,21,11Z"/></symbol><symbol id="apple" viewBox="0 0 24 24"><path d="M20.1,17.6A11.8,11.8,0,0,1,19,19.5a9.6,9.6,0,0,1-1.4,1.7,2.5,2.5,0,0,1-1.8.8,6.2,6.2,0,0,1-1.6-.4,4.2,4.2,0,0,0-1.8-.4,3.9,3.9,0,0,0-1.8.4A7.3,7.3,0,0,1,9,22a2.4,2.4,0,0,1-1.8-.8,6.6,6.6,0,0,1-1.4-1.7,10.1,10.1,0,0,1-1.6-3.1,11.3,11.3,0,0,1-.6-3.6,7.5,7.5,0,0,1,.8-3.5A4.7,4.7,0,0,1,6.3,7.5a4,4,0,0,1,2.4-.7,5.4,5.4,0,0,1,1.9.4l1.5.5,1.7-.5a5.6,5.6,0,0,1,2.3-.5,5.1,5.1,0,0,1,3.8,2,4.2,4.2,0,0,0-2.2,3.9A4.4,4.4,0,0,0,19,15.8l1.4.9-.3.9ZM16.2,2.4a4.5,4.5,0,0,1-1.1,2.8A3.7,3.7,0,0,1,12,6.7V6.3a4.3,4.3,0,0,1,1.2-2.8,3,3,0,0,1,1.4-1A3.3,3.3,0,0,1,16.2,2v.4Z"/></symbol><symbol id="assign" viewBox="0 0 24 24"><path d="M19,3H14.8A3,3,0,0,0,9.2,3H5A2,2,0,0,0,3,5V19a2,2,0,0,0,2,2H19a2,2,0,0,0,2-2V5A2,2,0,0,0,19,3Zm-7-.2a.8.8,0,0,1,.8.7.8.8,0,0,1-1.6,0A.8.8,0,0,1,12,2.8Zm5,6.8-5.7,5.7a1,1,0,0,1-1.4,0L7.1,12.5a1,1,0,0,1,0-1.4h0a1,1,0,0,1,1.4,0l2.1,2.1,4.9-5a1,1,0,0,1,1.4,0A1.1,1.1,0,0,1,17,9.6Z"/></symbol><symbol id="audio-off" viewBox="0 0 24 24"><path d="M4.9,3.5A1,1,0,0,0,3.5,4.9L6.6,8H4a2,2,0,0,0-2,2v4a2,2,0,0,0,2,2H7l4.7,4.5a1.3,1.3,0,0,0,2.3-.9V15.4l5.1,5.1a1,1,0,0,0,1.4-1.4Z"/><path d="M14,4.3a1.4,1.4,0,0,0-2.3-1L9.6,5.4,14,9.8Z"/><path d="M16.5,12v.2l1.6,1.7a4.1,4.1,0,0,0,.4-1.9,5.3,5.3,0,0,0-1.9-4.1,1,1,0,1,0-1.3,1.5A3.4,3.4,0,0,1,16.5,12Z"/><path d="M20,12a7.3,7.3,0,0,1-.7,3l1.5,1.5A8.7,8.7,0,0,0,22,12a8.9,8.9,0,0,0-3-6.7.9.9,0,0,0-1.4.1,1,1,0,0,0,0,1.4A6.9,6.9,0,0,1,20,12Z"/></symbol><symbol id="audio" viewBox="0 0 24 24"><path d="M16.6,7.9a1,1,0,1,0-1.3,1.5,3.4,3.4,0,0,1,0,5.2,1,1,0,0,0-.1,1.4.9.9,0,0,0,.7.4.9.9,0,0,0,.7-.3,5.4,5.4,0,0,0,0-8.2Z"/><path d="M19,5.3a.9.9,0,0,0-1.4.1,1,1,0,0,0,0,1.4,6.8,6.8,0,0,1,0,10.4,1,1,0,0,0,0,1.4.8.8,0,0,0,.7.4,1.1,1.1,0,0,0,.7-.3A9,9,0,0,0,19,5.3Z"/><path d="M11.7,3.3,7,8H4a2,2,0,0,0-2,2v4a2,2,0,0,0,2,2H7l4.7,4.5a1.3,1.3,0,0,0,2.3-.9V4.3A1.4,1.4,0,0,0,11.7,3.3Z"/></symbol><symbol id="axes" viewBox="0 0 24 24"><path d="M22.2,16.5,15.9,14c-.2,0-.4,0-.5.2s-.2.3-.1.5l.6,1.3H8V8.1l1.3.6h.2l.3-.2c.2-.1.2-.3.2-.5L7.5,1.8a.6.6,0,0,0-1,0L4,8.1c0,.2,0,.4.2.5s.3.2.5.1L6,8.1V16H2a1,1,0,0,0,0,2H6v4a.9.9,0,0,0,1,1,.9.9,0,0,0,1-1V18h7.9l-.6,1.3c-.1.2-.1.4.1.5a.5.5,0,0,0,.4.2h.1l6.3-2.5a.6.6,0,0,0,0-1Z"/></symbol><symbol id="back" viewBox="0 0 24 24"><path d="M19,11H7.8l4.9-4.9a1,1,0,0,0-1.4-1.4L4.7,11.3a1,1,0,0,0,0,1.4l6.6,6.6a1,1,0,1,0,1.4-1.4L7.8,13H19a1,1,0,0,0,0-2Z"/></symbol><symbol id="bold" viewBox="0 0 24 24"><path d="M15.2,11.6h0a3.8,3.8,0,0,0,2-3.4c0-2.6-2.1-4.1-5-4.1H7.5a.9.9,0,0,0-1,1V19a.9.9,0,0,0,1,1h4.8c2.9,0,5.5-1.4,5.5-4.6A3.7,3.7,0,0,0,15.2,11.6ZM9.4,6.5h2.8a1.8,1.8,0,0,1,2,2,1.9,1.9,0,0,1-2,2H9.4Zm3.1,11H9.4V12.9h3.1a2.1,2.1,0,0,1,2.3,2.3A2.2,2.2,0,0,1,12.5,17.5Z"/></symbol><symbol id="book" viewBox="0 0 24 24"><path d="M19.1,9.1a13.2,13.2,0,0,0-5.3.4c-.4.2-.7.6-.5,1a.8.8,0,0,0,.7.5h.2a10.4,10.4,0,0,1,4.7-.4,1,1,0,0,0,.9-.7A.8.8,0,0,0,19.1,9.1Z"/><path d="M19.1,11.8a11.6,11.6,0,0,0-5.3.4c-.4.1-.7.6-.5.9a.7.7,0,0,0,.7.6h.2a14.2,14.2,0,0,1,4.7-.4.8.8,0,0,0,.9-.6A.8.8,0,0,0,19.1,11.8Z"/><path d="M19.1,14.4a13.2,13.2,0,0,0-5.3.5.7.7,0,0,0-.5.9.8.8,0,0,0,.7.5h.2a12,12,0,0,1,4.7-.4.8.8,0,0,0,.9-.7A.8.8,0,0,0,19.1,14.4Z"/><path d="M10.2,9.5a13.2,13.2,0,0,0-5.3-.4.8.8,0,0,0-.7.8.8.8,0,0,0,.8.7,10.8,10.8,0,0,1,4.8.4H10a.8.8,0,0,0,.7-.5A.9.9,0,0,0,10.2,9.5Z"/><path d="M10.2,12.2a11.6,11.6,0,0,0-5.3-.4.8.8,0,0,0-.7.8c.1.4.4.7.8.6a14.9,14.9,0,0,1,4.8.4H10a.7.7,0,0,0,.7-.6A.8.8,0,0,0,10.2,12.2Z"/><path d="M10.2,14.9a13.2,13.2,0,0,0-5.3-.5.8.8,0,0,0-.7.8c.1.5.4.8.8.7a12.5,12.5,0,0,1,4.8.4H10a.8.8,0,0,0,.7-.5A.7.7,0,0,0,10.2,14.9Z"/><path d="M21.8,5.3a10.3,10.3,0,0,0-4.3-.8A9.3,9.3,0,0,0,12,6h0A9.5,9.5,0,0,0,6.5,4.5a10.3,10.3,0,0,0-4.3.8A2,2,0,0,0,1,7.1V18.4a2,2,0,0,0,2.5,2,10.3,10.3,0,0,1,3-.4,11.8,11.8,0,0,1,4.6.9,1.6,1.6,0,0,0,.9.3h0a1.5,1.5,0,0,0,.9-.2,10.2,10.2,0,0,1,4.6-.9,10.3,10.3,0,0,1,3,.4,2,2,0,0,0,2.5-2V7.1A2,2,0,0,0,21.8,5.3ZM21,17.2a1,1,0,0,1-1.2,1L17.5,18A12.5,12.5,0,0,0,12,19.5h0A12.9,12.9,0,0,0,6.5,18l-2.3.2a1,1,0,0,1-1.2-1V7.8a1,1,0,0,1,.8-1,12.4,12.4,0,0,1,2.7-.3A12.9,12.9,0,0,1,12,8h0a11.3,11.3,0,0,1,5.5-1.5,12.4,12.4,0,0,1,2.7.3,1,1,0,0,1,.8,1Z"/></symbol><symbol id="bookmark" viewBox="0 0 24 24"><path d="M16.3,3H7.7A1.9,1.9,0,0,0,6,5V19.5c0,.7.6,1.2,1.2.9L12,16l4.8,4.4c.6.3,1.2-.2,1.2-.9V5A1.9,1.9,0,0,0,16.3,3Z"/></symbol><symbol id="brackets" viewBox="0 0 24 24"><rect x="8" y="6" width="8" height="12" rx="1" opacity=".4"/><path d="M18,21h-.5a1.1,1.1,0,0,1-.4-1.4A15.5,15.5,0,0,0,19,12a15.5,15.5,0,0,0-1.9-7.5,1.1,1.1,0,0,1,.4-1.4,1.1,1.1,0,0,1,1.4.4,18.3,18.3,0,0,1,0,17A1.1,1.1,0,0,1,18,21Z"/><path d="M6,21a1.1,1.1,0,0,1-.9-.5,18.3,18.3,0,0,1,0-17,1.1,1.1,0,0,1,1.4-.4,1.1,1.1,0,0,1,.4,1.4A15.5,15.5,0,0,0,5,12a15.5,15.5,0,0,0,1.9,7.5,1.1,1.1,0,0,1-.4,1.4Z"/></symbol><symbol id="brightness" viewBox="0 0 24 24"><path d="M1.4,11.3,4,8.7V5A1,1,0,0,1,5,4H8.7l2.6-2.6a1,1,0,0,1,1.4,0L15.3,4H19a.9.9,0,0,1,1,1V8.7l2.6,2.6a1,1,0,0,1,0,1.4L20,15.3V19a1,1,0,0,1-1,1H15.3l-2.6,2.6a1,1,0,0,1-1.4,0L8.7,20H5a1.1,1.1,0,0,1-1-1V15.3L1.4,12.7A1,1,0,0,1,1.4,11.3ZM6.1,13A5.7,5.7,0,0,0,10,17.6a5.3,5.3,0,0,0,3.5.2c.4-.1.4-.6.1-.9a5.9,5.9,0,0,1,0-9.8c.3-.3.3-.8-.2-.9a5.4,5.4,0,0,0-3.5.2A5.8,5.8,0,0,0,6.1,11,3.8,3.8,0,0,0,6,12,3.8,3.8,0,0,0,6.1,13Z"/></symbol><symbol id="brush" viewBox="0 0 24 24"><path d="m7 14a2.9 2.9 0 0 0 -3 3 2.1 2.1 0 0 1 -2 2 5.2 5.2 0 0 0 4 2 4 4 0 0 0 4-4 2.9 2.9 0 0 0 -3-3zm13.7-9.4-1.3-1.3a1 1 0 0 0 -1.4 0l-9 8.9 2.8 2.8 8.9-9a1 1 0 0 0 0-1.4z"/></symbol><symbol id="button" viewBox="0 0 24 24"><path d="M22,9v6a2,2,0,0,1-2,2H19V15h1V9H4v6h6v2H4a2,2,0,0,1-2-2V9A2,2,0,0,1,4,7H20A2,2,0,0,1,22,9ZM14.5,19l1.1-2.4L18,15.5l-2.4-1.1L14.5,12l-1.1,2.4L11,15.5l2.4,1.1ZM17,14l.6-1.4L19,12l-1.4-.6L17,10l-.6,1.4L15,12l1.4.6Zm-2.5,5,1.1-2.4L18,15.5l-2.4-1.1L14.5,12l-1.1,2.4L11,15.5l2.4,1.1ZM17,14l.6-1.4L19,12l-1.4-.6L17,10l-.6,1.4L15,12l1.4.6Z"/></symbol><symbol id="calculate" viewBox="0 0 24 24"><path d="m19 3h-14a2 2 0 0 0 -2 2v14a2 2 0 0 0 2 2h14a2 2 0 0 0 2-2v-14a2 2 0 0 0 -2-2zm-5.4 3.5a.7.7 0 0 1 1 0l.9.9.9-.9a.7.7 0 0 1 1 0 .8.8 0 0 1 0 1.1l-.8.9.8.9a.7.7 0 0 1 0 1 .7.7 0 0 1 -1 0l-.9-.9-.9.9a.7.7 0 0 1 -1 0 .7.7 0 0 1 0-1l.8-.9-.8-.9a.8.8 0 0 1 0-1.1zm-6.6 1.2h3.5a.8.8 0 0 1 .7.8.7.7 0 0 1 -.7.7h-3.5a.8.8 0 0 1 -.8-.7.9.9 0 0 1 .8-.8zm3.8 8.3h-1.3v1.2a.7.7 0 0 1 -.7.8.7.7 0 0 1 -.8-.8v-1.2h-1.2a.7.7 0 0 1 -.8-.8.7.7 0 0 1 .8-.7h1.2v-1.3a.7.7 0 0 1 .8-.7.7.7 0 0 1 .7.7v1.3h1.3a.7.7 0 0 1 .7.7.7.7 0 0 1 -.7.8zm6.4 1.2h-3.4a.7.7 0 0 1 -.8-.7.7.7 0 0 1 .8-.7h3.4a.7.7 0 0 1 .8.7.7.7 0 0 1 -.8.7zm0-2.4h-3.4a.8.8 0 0 1 -.8-.8.8.8 0 0 1 .8-.8h3.4a.8.8 0 0 1 .8.8.8.8 0 0 1 -.8.8z"/></symbol><symbol id="canvas" viewBox="0 0 24 24"><path d="M21.4,9.4,16.6,4.6A2,2,0,0,0,15.2,4H4A2,2,0,0,0,2,6V18a2,2,0,0,0,2,2H20a2,2,0,0,0,2-2V10.8A2,2,0,0,0,21.4,9.4ZM15,5.5,20.5,11H16a.9.9,0,0,1-1-1Z"/></symbol><symbol id="chat" viewBox="0 0 24 24"><polyline points="24 24 0 24 0 0" fill="none"/><path d="M20,6H19v9H6v1a2,2,0,0,0,2,2H18l3.1,3.1a.5.5,0,0,0,.9-.3V8A2,2,0,0,0,20,6Zm-3,5V4a2,2,0,0,0-2-2H4A2,2,0,0,0,2,4V15.8a.4.4,0,0,0,.8.3L6,13h9A2,2,0,0,0,17,11Z"/></symbol><symbol id="check" viewBox="0 0 24 24"><path d="m21.9 4.3-.2-.4-.3-.3h-.5a49.6 49.6 0 0 0 -11.7 10.2 32.3 32.3 0 0 0 -5.2-3.1h-.5l-1.1 1-.2.4a.8.8 0 0 0 .2.4 73.6 73.6 0 0 1 7.2 7.6l.4.2c.2-.1.3-.1.4-.3 4.2-7.4 7.3-11.5 11.3-15.1a.7.7 0 0 0 .2-.6z"/></symbol><symbol id="close" viewBox="0 0 24 24"><path d="M18.7,16.5,14.1,12l4.6-4.5a2.1,2.1,0,0,0,.4-1.1,1.5,1.5,0,0,0-.4-1h0a1.6,1.6,0,0,0-2.2,0L12,9.9,7.5,5.3a1.8,1.8,0,0,0-2.2,0,2.1,2.1,0,0,0-.4,1.1,2.1,2.1,0,0,0,.4,1.1L9.9,12,5.3,16.5a2.1,2.1,0,0,0-.4,1.1,2.1,2.1,0,0,0,.4,1.1,1.8,1.8,0,0,0,2.2,0L12,14.1l4.5,4.6a2.1,2.1,0,0,0,1.1.4,2.1,2.1,0,0,0,1.1-.4,2.1,2.1,0,0,0,.4-1.1A2.1,2.1,0,0,0,18.7,16.5Z"/></symbol><symbol id="code" viewBox="0 0 24 24"><path d="M8.7,15.9,4.8,12,8.7,8.1A1,1,0,0,0,7.3,6.7L2.7,11.3a1,1,0,0,0,0,1.4l4.6,4.6a1,1,0,1,0,1.4-1.4Zm6.6,0L19.2,12,15.3,8.1a1,1,0,0,1,1.4-1.4l4.6,4.6a1,1,0,0,1,0,1.4l-4.6,4.6a1,1,0,1,1-1.4-1.4Z"/></symbol><symbol id="color" viewBox="0 0 24 24"><path d="M12,3a9,9,0,0,0,0,18,1.5,1.5,0,0,0,1.5-1.5,1.3,1.3,0,0,0-.4-1,1.8,1.8,0,0,1-.4-1A1.5,1.5,0,0,1,14.2,16H16a5,5,0,0,0,5-5C21,6.6,17,3,12,3ZM6.5,12a1.5,1.5,0,0,1,0-3,1.5,1.5,0,0,1,0,3Zm3-4A1.5,1.5,0,0,1,8,6.5a1.5,1.5,0,0,1,3,0A1.5,1.5,0,0,1,9.5,8Zm5,0A1.5,1.5,0,0,1,13,6.5a1.5,1.5,0,0,1,3,0A1.5,1.5,0,0,1,14.5,8Zm3,4A1.5,1.5,0,1,1,19,10.5,1.5,1.5,0,0,1,17.5,12Z"/></symbol><symbol id="compass" viewBox="0 0 24 24"><path d="M5.1,21.7a.8.8,0,0,0,.6,1.2H6a1,1,0,0,0,.9-.7L11.3,9.9a3.7,3.7,0,0,1-1.8-.8Z"/><path d="M18.9,21.7,14.5,9.1a3.7,3.7,0,0,1-1.8.8l4.4,12.4a1,1,0,0,0,.9.7h.3A.8.8,0,0,0,18.9,21.7Z"/><path d="M15,6a3,3,0,0,0-2-2.8V2a1,1,0,0,0-2,0V3.2A3,3,0,0,0,9,6a3,3,0,0,0,6,0ZM12,7a.9.9,0,0,1-1-1,1,1,0,0,1,2,0A.9.9,0,0,1,12,7Z"/></symbol><symbol id="construction" viewBox="0 0 24 24"><path d="m13.4 15.5 4.4 4.4a1.5 1.5 0 0 0 2.1 0 1.4 1.4 0 0 0 0-2.1l-4.4-4.4z"/><path d="m16.3 9.8a3.6 3.6 0 0 0 3.1-.4 3.1 3.1 0 0 0 1.5-2.3 2.7 2.7 0 0 0 -.2-2l-2.4 2.4-1.8-1.8 2.4-2.4a3.4 3.4 0 0 0 -2-.3 3.5 3.5 0 0 0 -2.3 1.6 3.6 3.6 0 0 0 -.4 3.1l-2.2 2.2-1.7-1.7a1 1 0 0 0 0-1.4l-.5-.6 2.3-2.3a3.5 3.5 0 0 0 -2.3-.9 3.1 3.1 0 0 0 -2.2.9l-2.9 2.9a1 1 0 0 0 0 1.4l.5.5h-1.7l-.5.2a.7.7 0 0 0 0 1l2 2a.7.7 0 0 0 1 0 .8.8 0 0 0 .2-.5v-1.7l.6.5a1 1 0 0 0 1.4 0l1.7 1.8-5.8 5.8a1.4 1.4 0 0 0 0 2.1 1.4 1.4 0 0 0 2.1 0l5.4-5.3z"/></symbol><symbol id="controls" viewBox="0 0 24 24"><path d="M3,18a1.1,1.1,0,0,0,1,1H9V17H4A1.1,1.1,0,0,0,3,18ZM3,6A1,1,0,0,0,4,7h9V5H4A1,1,0,0,0,3,6ZM13,20V19h7a1,1,0,0,0,0-2H13V16a1,1,0,0,0-2,0v4a1,1,0,0,0,2,0ZM7,10v1H4a1,1,0,0,0,0,2H7v1a.9.9,0,0,0,1,1,.9.9,0,0,0,1-1V10A.9.9,0,0,0,8,9,.9.9,0,0,0,7,10Zm14,2a1,1,0,0,0-1-1H11v2h9A1,1,0,0,0,21,12ZM16,9a1,1,0,0,0,1-1V7h3a1,1,0,0,0,0-2H17V4a1,1,0,0,0-2,0V8A.9.9,0,0,0,16,9Z"/></symbol><symbol id="copy" viewBox="0 0 24 24"><path d="M15,4H5V17a.9.9,0,0,1-1,1H4a1,1,0,0,1-1-1V4A2,2,0,0,1,5,2H15a1,1,0,0,1,1,1h0A1,1,0,0,1,15,4Zm5,4V20a2,2,0,0,1-2,2H9a2,2,0,0,1-2-2V8A2,2,0,0,1,9,6h9A2,2,0,0,1,20,8ZM18,8H9V20h9Z"/></symbol><symbol id="creditcard" viewBox="0 0 24 24"><path d="M20,4H4A2,2,0,0,0,2,6V18a2,2,0,0,0,2,2H20a2,2,0,0,0,2-2V6A2,2,0,0,0,20,4Zm0,14H4V12H20ZM20,8H4V6H20Z"/></symbol><symbol id="cross" viewBox="0 0 24 24"><path d="M19,16l-4.7-4.3L18.6,7a1.2,1.2,0,0,0,0-1.5l-.4-.3a1,1,0,0,0-1.4,0L12,9.5,7.2,5.2a1,1,0,0,0-1.4,0l-.4.3A1.2,1.2,0,0,0,5.4,7l4.3,4.7L5,16a1.1,1.1,0,0,0-.1,1.4l1.5,1.4a.9.9,0,0,0,1.3,0L12,14.1l4.3,4.7a.9.9,0,0,0,1.3,0l1.5-1.4A1.1,1.1,0,0,0,19,16Z"/></symbol><symbol id="cursor" viewBox="0 0 24 24"><path d="M8.3,3.2,17.8,12a.8.8,0,0,1-.5,1.3l-4.1.4L16,19.9a1.2,1.2,0,0,1-.6,1.6h0a1.2,1.2,0,0,1-1.6-.6l-2.7-6.3L8.3,17.3A.8.8,0,0,1,7,16.8V3.8A.8.8,0,0,1,8.3,3.2Z"/></symbol><symbol id="dashboard" viewBox="0 0 24 24"><path d="M4,13h6a.9.9,0,0,0,1-1V4a1,1,0,0,0-1-1H4A1.1,1.1,0,0,0,3,4v8A1,1,0,0,0,4,13Zm0,8h6a1,1,0,0,0,1-1V16a.9.9,0,0,0-1-1H4a1,1,0,0,0-1,1v4A1.1,1.1,0,0,0,4,21Zm10,0h6a1.1,1.1,0,0,0,1-1V12a1,1,0,0,0-1-1H14a.9.9,0,0,0-1,1v8A1,1,0,0,0,14,21ZM13,4V8a.9.9,0,0,0,1,1h6a1,1,0,0,0,1-1V4a1.1,1.1,0,0,0-1-1H14A1,1,0,0,0,13,4Z"/></symbol><symbol id="delete" viewBox="0 0 24 24"><path d="M6,19a2,2,0,0,0,2,2h8a2,2,0,0,0,2-2V7H6Zm3.2-6.4a1,1,0,1,1,1.4-1.4L12,12.6l1.4-1.4a1,1,0,1,1,1.4,1.4L13.4,14l1.4,1.4a1,1,0,1,1-1.4,1.4L12,15.4l-1.4,1.4a1,1,0,1,1-1.4-1.4L10.6,14ZM18,4H15.5l-.7-.7a.9.9,0,0,0-.7-.3H9.9a.9.9,0,0,0-.7.3L8.5,4H6A.9.9,0,0,0,5,5,.9.9,0,0,0,6,6H18a1,1,0,0,0,0-2Z"/></symbol><symbol id="donate" viewBox="0 0 24 24"><path d="M11,14a6,6,0,0,1,10.7-3.7,6.4,6.4,0,0,0,.3-2A5.6,5.6,0,0,0,19.7,4,5.8,5.8,0,0,0,12,5.1,5.8,5.8,0,0,0,4.3,4,5.6,5.6,0,0,0,2,8.3c-.1,3.9,3.3,7,8.5,11.7h.2a1.9,1.9,0,0,0,2.6,0h.2a4.6,4.6,0,0,0,.7-.7A6,6,0,0,1,11,14Z"/><path d="M17,9a5,5,0,1,0,5,5A5,5,0,0,0,17,9Zm.7,8v.3a.7.7,0,0,1-.7.7h0a.7.7,0,0,1-.6-.7V17a1.8,1.8,0,0,1-1.5-1.1c-.2-.3.1-.6.4-.6h.1c.2,0,.3.2.4.3s.5.7,1.2.7,1.2-.5,1.2-.8-.2-.8-1.3-1.1-2.1-.8-2.1-1.8.7-1.4,1.6-1.6v-.3A.7.7,0,0,1,17,10h0a.7.7,0,0,1,.7.7V11A1.7,1.7,0,0,1,19,12.1a.4.4,0,0,1-.4.6h-.1c-.2,0-.3-.2-.4-.3s-.4-.7-1.1-.7-1.2.4-1.2.9.4.7,1.4.9,2.1.7,2.1,2S18.6,16.9,17.7,17Z"/></symbol><symbol id="down" viewBox="0 0 24 24"><path d="m4.1 7.9a1.4 1.4 0 0 0 0 2.1l6.9 6.9a1.4 1.4 0 0 0 2.1 0l6.8-6.9a1.4 1.4 0 0 0 0-2.1 1.4 1.4 0 0 0 -2.1 0l-5.8 5.9-5.8-5.9a1.5 1.5 0 0 0 -2.1 0z"/></symbol><symbol id="download" viewBox="0 0 24 24"><path d="M19,11A7,7,0,0,0,5.3,9.1,5.5,5.5,0,0,0,6.5,20h12A4.5,4.5,0,0,0,23,15.5,4.5,4.5,0,0,0,19,11Zm-4.2,2a.5.5,0,0,1,.3.9l-2.7,2.7a.6.6,0,0,1-.8,0L8.9,13.8a.4.4,0,0,1,.3-.8H11V10a.9.9,0,0,1,1-1h0a.9.9,0,0,1,1,1v3Z"/></symbol><symbol id="drag-handle" viewBox="0 0 24 24"><path d="m11 18a2 2 0 1 1 -2-2 2 2 0 0 1 2 2zm-2-8a2 2 0 1 0 2 2 2 2 0 0 0 -2-2zm0-6a2 2 0 1 0 2 2 2 2 0 0 0 -2-2zm6 4a2 2 0 1 0 -2-2 2 2 0 0 0 2 2zm0 2a2 2 0 1 0 2 2 2 2 0 0 0 -2-2zm0 6a2 2 0 1 0 2 2 2 2 0 0 0 -2-2z"/></symbol><symbol id="email" viewBox="0 0 24 24"><path d="M20,4H4A2,2,0,0,0,2,6V18a2,2,0,0,0,2,2H20a2,2,0,0,0,2-2V6A2,2,0,0,0,20,4Zm-.4,4.2-7.1,4.5a.9.9,0,0,1-1,0L4.4,8.2A.8.8,0,0,1,4,7.5a.9.9,0,0,1,1.3-.7L12,11l6.7-4.2a.9.9,0,0,1,1.3.7A.7.7,0,0,1,19.6,8.2Z"/></symbol><symbol id="equation" viewBox="0 0 24 24"><path d="M7,14.4,4.9,10.1C4.6,9.5,5,9,5.7,9H6.8a1,1,0,0,1,1,.6L8.7,12l.2.7H9l.5-.7,1.8-2.4A1.3,1.3,0,0,1,12.4,9h1.1c.8,0,.9.5.4,1.1l-3.6,4.3,2.2,4.5a.8.8,0,0,1-.8,1.1H10.6a.8.8,0,0,1-.9-.6L8.6,16.8a3.9,3.9,0,0,1-.2-.6H8.3a2.9,2.9,0,0,1-.4.6l-2,2.6a1.4,1.4,0,0,1-1.2.6h-1c-.7,0-.9-.5-.4-1.1Z"/><path d="M15.5,10.2c0-3,3.4-3.5,3.4-4.6a.8.8,0,0,0-.9-.8,1.2,1.2,0,0,0-.8.4c-.3.3-.6.4-.9.1L15.9,5c-.3-.3-.4-.5-.2-.8A3.1,3.1,0,0,1,18.2,3a2.4,2.4,0,0,1,2.7,2.4c0,2.5-3.2,2.9-3.3,3.9h2.8c.4,0,.6.3.6.7v.4a.5.5,0,0,1-.6.6H16.1a.5.5,0,0,1-.6-.6Z"/></symbol><symbol id="eraser" viewBox="0 0 24 24"><path d="M20.4,8.4,16.6,4.6A2.2,2.2,0,0,0,15.1,4a2,2,0,0,0-1.4.6L3.6,14.7a2.1,2.1,0,0,0,0,2.9L6,20h5.7l8.7-8.7A2.1,2.1,0,0,0,20.4,8.4Z"/><path d="M20,18H16l-2,2h6a1,1,0,0,0,0-2Z"/></symbol><symbol id="eye-off" viewBox="0 0 24 24"><path d="M22.6,10.7A11.7,11.7,0,0,0,12,4a12.2,12.2,0,0,0-4.3.8l2.5,2.6A3.9,3.9,0,0,1,12,7a4.5,4.5,0,0,1,4.5,4.5,3.9,3.9,0,0,1-.4,1.8l3.2,3.2a12.1,12.1,0,0,0,3.3-4.2A1.5,1.5,0,0,0,22.6,10.7Z"/><path d="M12,8.8h-.3l3,3v-.3A2.7,2.7,0,0,0,12,8.8Z"/><path d="M3.5,3.5a1,1,0,0,0-1.4,0h0a1,1,0,0,0,0,1.4L4.2,7a10.1,10.1,0,0,0-2.8,3.7,1.5,1.5,0,0,0,0,1.6A11.7,11.7,0,0,0,12,19a10.5,10.5,0,0,0,3.6-.6l3.5,3.5a1,1,0,0,0,1.4-1.4ZM12,16a4.5,4.5,0,0,1-4.5-4.5c0-.4.1-.7.1-1l1.8,1.7a3.1,3.1,0,0,0,1.8,1.9L13,15.9Z"/></symbol><symbol id="eye" viewBox="0 0 24 24"><path d="M12,4A11.7,11.7,0,0,0,1.4,10.7a1.5,1.5,0,0,0,0,1.6,11.7,11.7,0,0,0,21.2,0,1.5,1.5,0,0,0,0-1.6A11.7,11.7,0,0,0,12,4Zm0,12a4.5,4.5,0,1,1,4.5-4.5A4.5,4.5,0,0,1,12,16Z"/><circle cx="12" cy="11.5" r="2.7"/></symbol><symbol id="facebook" viewBox="0 0 24 24"><path d="M12,2a10,10,0,0,0-1.6,19.9v-7H7.9V12h2.5V9.8a3.5,3.5,0,0,1,3.8-3.9l2.3.2V8.6H15.2c-1.3,0-1.6.7-1.6,1.5V12h2.7l-.4,2.9H13.6v7A10,10,0,0,0,12,2Z"/></symbol><symbol id="favourite" viewBox="0 0 24 24"><path d="M10.7,19.8C5.2,14.9,2,12.2,2,8.4A5.3,5.3,0,0,1,4.3,4C8,1.5,11.2,4.2,12,5.1c.8-.9,4-3.5,7.6-1.2A5.9,5.9,0,0,1,22,8.1c.3,4.2-4.2,7.7-8.7,11.7a1.7,1.7,0,0,1-1.3.5A2.1,2.1,0,0,1,10.7,19.8Z"/></symbol><symbol id="feedback" viewBox="0 0 24 24"><path d="M20,3H4A2,2,0,0,0,2,5V16a2,2,0,0,0,2,2H6v5l5-5h9a2,2,0,0,0,2-2V5A2,2,0,0,0,20,3ZM7,12A1.5,1.5,0,0,1,7,9a1.5,1.5,0,0,1,0,3Zm5,0a1.5,1.5,0,1,1,1.5-1.5A1.5,1.5,0,0,1,12,12Zm5,0a1.5,1.5,0,1,1,1.5-1.5A1.5,1.5,0,0,1,17,12Z"/></symbol><symbol id="folder-shared" viewBox="0 0 24 24"><path d="M20,6H12L10.6,4.6A2,2,0,0,0,9.2,4H4A2,2,0,0,0,2,6V18a2,2,0,0,0,2,2H20a2,2,0,0,0,2-2V8A2,2,0,0,0,20,6ZM15,9a2,2,0,1,1-2,2A2,2,0,0,1,15,9Zm4,8H11v-.6a2,2,0,0,1,1.2-1.8,6.8,6.8,0,0,1,5.6,0A2,2,0,0,1,19,16.4Z"/></symbol><symbol id="folder" viewBox="0 0 24 24"><path d="M10.6,4.6A2,2,0,0,0,9.2,4H4A2,2,0,0,0,2,6V18a2,2,0,0,0,2,2H20a2,2,0,0,0,2-2V8a2,2,0,0,0-2-2H12Z"/></symbol><symbol id="font-grow" viewBox="0 0 24 24"><path d="m6.8 4.7c.1-.5.4-.7 1-.7h1.3a.9.9 0 0 1 1 .7l4.7 13.3a.7.7 0 0 1 -.7 1h-1a1 1 0 0 1 -1-.7l-1.1-3.1h-5.2l-1 3.1a1 1 0 0 1 -1 .7h-1c-.7 0-.9-.4-.7-1zm3.6 8.2-2-6.3-1.9 6.3z"/><path d="m0 .1h24v24h-24z" fill="none"/><path d="m21.7 9.3-3-3a1 1 0 0 0 -1.4 0l-3 3a1 1 0 0 0 1.4 1.4l1.3-1.3v4.6a1 1 0 0 0 2 0v-4.6l1.3 1.3a1 1 0 0 0 1.4 0 1 1 0 0 0 0-1.4z"/></symbol><symbol id="font-shrink" viewBox="0 0 24 24"><path d="m21.7 10.3a1 1 0 0 0 -1.4 0l-1.3 1.3v-4.6a1 1 0 0 0 -2 0v4.6l-1.3-1.3a1 1 0 0 0 -1.4 1.4l3 3a1 1 0 0 0 1.4 0l3-3a1 1 0 0 0 0-1.4z"/><path d="m14.3 18-3.7-10.3a.8.8 0 0 0 -.9-.7h-1.1a1 1 0 0 0 -.9.6l-3.6 10.4a.8.8 0 0 0 0 .7.7.7 0 0 0 .6.3h.8a.8.8 0 0 0 .9-.7l.8-2.3h3.9l.8 2.3a.9.9 0 0 0 .9.7h.8a.6.6 0 0 0 .6-.3c.2-.1.2-.4.1-.7zm-3.8-4h-2.7l1.4-4.4z"/></symbol><symbol id="forbidden" viewBox="0 0 24 24"><path d="m14.9 3h-5.8a2 2 0 0 0 -1.4.6l-4.1 4.1a2 2 0 0 0 -.6 1.4v5.8a2 2 0 0 0 .6 1.4l4.1 4.1a2 2 0 0 0 1.4.6h5.8a2 2 0 0 0 1.4-.6l4.1-4.1a2 2 0 0 0 .6-1.4v-5.8a2 2 0 0 0 -.6-1.4l-4.1-4.1a2 2 0 0 0 -1.4-.6zm.6 12.5a1 1 0 0 1 -1.4 0l-2.1-2.1-2.1 2.1a1 1 0 0 1 -1.4 0 1 1 0 0 1 0-1.4l2.1-2.1-2.1-2.1a1 1 0 0 1 0-1.4 1 1 0 0 1 1.4 0l2.1 2.1 2.1-2.1a1 1 0 0 1 1.4 0 1 1 0 0 1 0 1.4l-2.1 2.1 2.1 2.1a1 1 0 0 1 0 1.4z"/></symbol><symbol id="forward" viewBox="0 0 24 24"><path d="M5,13H16.2l-4.9,4.9a1,1,0,1,0,1.4,1.4l6.6-6.6a1,1,0,0,0,0-1.4L12.7,4.7a1,1,0,0,0-1.4,1.4L16.2,11H5a1,1,0,0,0,0,2Z"/></symbol><symbol id="fraction" viewBox="0 0 24 24"><path d="M17,13H7a1,1,0,0,1,0-2H17a1,1,0,0,1,0,2Z"/><rect x="8" y="2" width="8" height="8" rx="1" opacity=".4"/><rect x="8" y="14" width="8" height="8" rx="1" opacity=".4"/></symbol><symbol id="fullscreen-reverse" viewBox="0 0 24 24"><path d="m20.1 8.2-1.4-1.5 2.2-2.2a1 1 0 0 0 0-1.4 1 1 0 0 0 -1.4 0l-2.2 2.2-1.5-1.4a.4.4 0 0 0 -.8.3v4.3a.5.5 0 0 0 .5.5h4.3a.4.4 0 0 0 .3-.8z"/><path d="m8.2 3.9-1.5 1.4-2.2-2.2a1 1 0 0 0 -1.4 0 1 1 0 0 0 0 1.4l2.2 2.2-1.4 1.4a.5.5 0 0 0 .3.9h4.3a.5.5 0 0 0 .5-.5v-4.3a.4.4 0 0 0 -.8-.3z"/><path d="m3.9 15.9 1.4 1.4-2.2 2.2a1 1 0 0 0 0 1.4 1 1 0 0 0 1.4 0l2.2-2.2 1.4 1.5a.6.6 0 0 0 .9-.4v-4.3a.5.5 0 0 0 -.5-.5h-4.3a.5.5 0 0 0 -.3.9z"/><path d="m15.9 20.1 1.4-1.4 2.2 2.2a1 1 0 0 0 1.4 0 1 1 0 0 0 0-1.4l-2.2-2.2 1.4-1.4a.5.5 0 0 0 -.3-.9h-4.3a.5.5 0 0 0 -.5.5v4.3a.5.5 0 0 0 .9.3z"/></symbol><symbol id="fullscreen" viewBox="0 0 24 24"><path d="m15.9 3.8 1.4 1.5-2.2 2.2a1 1 0 0 0 0 1.4 1 1 0 0 0 1.4 0l2.2-2.2 1.5 1.4a.4.4 0 0 0 .8-.3v-4.3a.5.5 0 0 0 -.5-.5h-4.3a.4.4 0 0 0 -.3.8zm-12.1 4.3 1.5-1.4 2.2 2.2a1 1 0 0 0 1.4 0 1 1 0 0 0 0-1.4l-2.2-2.2 1.4-1.4a.5.5 0 0 0 -.3-.9h-4.3a.5.5 0 0 0 -.5.5v4.3a.4.4 0 0 0 .8.3zm4.3 12-1.4-1.4 2.2-2.2a1 1 0 0 0 0-1.4 1 1 0 0 0 -1.4 0l-2.2 2.2-1.4-1.5a.6.6 0 0 0 -.9.4v4.3a.5.5 0 0 0 .5.5h4.3a.5.5 0 0 0 .3-.9zm12-4.2-1.4 1.4-2.2-2.2a1 1 0 0 0 -1.4 0 1 1 0 0 0 0 1.4l2.2 2.2-1.4 1.4a.5.5 0 0 0 .3.9h4.3a.5.5 0 0 0 .5-.5v-4.3a.5.5 0 0 0 -.9-.3z"/></symbol><symbol id="github" viewBox="0 0 24 24"><path d="M12,2A10,10,0,0,0,8.8,21.5c.5.1.7-.2.7-.5V19.1C6.7,19.8,6.1,18,6.1,18A2.4,2.4,0,0,0,5,16.5c-.9-.6.1-.6.1-.6a2.1,2.1,0,0,1,1.5,1,2.1,2.1,0,0,0,2.9.9,2.3,2.3,0,0,1,.7-1.4c-2.2-.2-4.6-1.1-4.6-4.9a4.1,4.1,0,0,1,1-2.7,4.1,4.1,0,0,1,.1-2.7s.9-.2,2.8,1.1A10.1,10.1,0,0,1,12,6.8a10.9,10.9,0,0,1,2.5.4c1.9-1.3,2.8-1.1,2.8-1.1a4.1,4.1,0,0,1,.1,2.7,4.1,4.1,0,0,1,1,2.7c0,3.8-2.4,4.7-4.6,4.9a2.3,2.3,0,0,1,.7,1.9V21c0,.3.2.6.7.5A10,10,0,0,0,12,2Z"/></symbol><symbol id="glossary" viewBox="0 0 24 24"><path d="M19.5,19a.5.5,0,0,0,.5-.5V3a.9.9,0,0,0-1-1H18V9.1a.5.5,0,0,1-.8.4l-1.7-1-1.7,1a.5.5,0,0,1-.8-.4V2H6A2,2,0,0,0,4,4V20a2,2,0,0,0,2,2H19.5a.5.5,0,0,0,0-1,1,1,0,0,1,0-2ZM6,21a1,1,0,0,1,0-2H17.8a1.8,1.8,0,0,0,0,2Z"/></symbol><symbol id="google" viewBox="0 0 24 24"><path d="M21.1,12.2a5.8,5.8,0,0,0-.2-1.9H12v3.6h5.1a4.4,4.4,0,0,1-1.9,2.9v2.4h3.1a9.3,9.3,0,0,0,2.8-7Z" fill="#2786fb"/><path d="M12,21.5a9.3,9.3,0,0,0,6.3-2.3l-3.1-2.4a5.3,5.3,0,0,1-3.2.9,5.5,5.5,0,0,1-5.3-3.9H3.5v2.5A9.5,9.5,0,0,0,12,21.5Z" fill="#00aa47"/><path d="M6.7,13.8a5.6,5.6,0,0,1,0-3.6V7.7H3.5a10.4,10.4,0,0,0-1,4.3,10.4,10.4,0,0,0,1,4.3l3.2-2.5Z" fill="#ffb800"/><path d="M12,6.3a5.2,5.2,0,0,1,3.6,1.4L18.4,5A9,9,0,0,0,12,2.5,9.5,9.5,0,0,0,3.5,7.7l3.2,2.5A5.5,5.5,0,0,1,12,6.3Z" fill="#fc2b25"/></symbol><symbol id="grid" viewBox="0 0 24 24"><path d="M20,2H4A2,2,0,0,0,2,4V20a2,2,0,0,0,2,2H20a2,2,0,0,0,2-2V4A2,2,0,0,0,20,2ZM8,20H4V16H8Zm0-6H4V10H8ZM8,8H4V4H8Zm6,12H10V16h4Zm0-6H10V10h4Zm0-6H10V4h4Zm6,12H16V16h4Zm0-6H16V10h4Zm0-6H16V4h4Z"/></symbol><symbol id="hand" viewBox="0 0 24 24"><path d="M19.5,10A1.5,1.5,0,0,0,18,11.5v-1a1.5,1.5,0,0,0-3,0v-1a1.5,1.5,0,0,0-3,0v-6a1.5,1.5,0,0,0-3,0V13.9L4.9,11.6a1.4,1.4,0,0,0-1.8.2,1.4,1.4,0,0,0,0,2.1l6.8,6.9A3.6,3.6,0,0,0,12.7,22H17a4,4,0,0,0,4-4V11.5A1.5,1.5,0,0,0,19.5,10Z"/></symbol><symbol id="help" viewBox="0 0 24 24"><path d="M12,2A10,10,0,1,0,22,12,10,10,0,0,0,12,2Zm0,17a1.25,1.25,0,1,1,1.25-1.25A1.25,1.25,0,0,1,12,19Zm3.49-8.38c-.92,1.36-1.8,1.79-2.28,2.66A1.9,1.9,0,0,0,13,14a1.11,1.11,0,0,1-1.1,1h-.05a1.09,1.09,0,0,1-1.09-1.2,2.81,2.81,0,0,1,.36-1.22c.6-1.06,1.73-1.7,2.39-2.64a1.81,1.81,0,0,0-1.67-2.85,2.12,2.12,0,0,0-1.84,1A1.09,1.09,0,0,1,8.17,6.92,4.28,4.28,0,0,1,11.8,5a4.12,4.12,0,0,1,3.67,1.86A3.7,3.7,0,0,1,15.49,10.62Z"/></symbol><symbol id="highlighter" viewBox="0 0 24 24"><path d="M10.2,9.5l-5.9,6a1.9,1.9,0,0,0,.1,2.8L.8,22H6.4l.8-.8a1.8,1.8,0,0,0,2.7.1l6-6.1Zm12.5-4L19.9,2.6a2.1,2.1,0,0,0-2.9,0L11.3,8.4l5.6,5.8,5.7-5.8A2.1,2.1,0,0,0,22.7,5.5Z" fill-rule="evenodd"/></symbol><symbol id="home" viewBox="0 0 24 24"><path d="M10,19V14h4v5a1,1,0,0,0,1,1h3a1.1,1.1,0,0,0,1-1V12h1.7a.5.5,0,0,0,.3-.9L12.7,3.6a1.2,1.2,0,0,0-1.4,0L3,11.1a.5.5,0,0,0,.3.9H5v7a1,1,0,0,0,1,1H9A1,1,0,0,0,10,19Z"/></symbol><symbol id="instagram" viewBox="0 0 24 24"><path d="M12,4.2h3.8c2.6.1,3.8,1.3,3.9,3.9a31.6,31.6,0,0,1,.1,3.8,31.6,31.6,0,0,1-.1,3.8c-.1,2.6-1.3,3.8-3.9,3.9H8.2c-2.6-.1-3.8-1.3-3.9-3.9A31.6,31.6,0,0,1,4.2,12a31.6,31.6,0,0,1,.1-3.8c.1-2.6,1.3-3.8,3.9-3.9Zm0-1.7H8.1c-3.5.1-5.4,2-5.5,5.5A32.6,32.6,0,0,0,2.5,12a32.6,32.6,0,0,0,.1,3.9c.1,3.5,2,5.4,5.5,5.5h7.8c3.5-.1,5.4-2,5.5-5.5a32.6,32.6,0,0,0,.1-3.9,32.6,32.6,0,0,0-.1-3.9c-.1-3.5-2-5.4-5.5-5.5Zm0,4.6A4.9,4.9,0,1,0,16.9,12,4.9,4.9,0,0,0,12,7.1Zm0,8.1A3.3,3.3,0,0,1,8.8,12,3.3,3.3,0,0,1,12,8.8,3.3,3.3,0,0,1,15.2,12,3.3,3.3,0,0,1,12,15.2Zm5.1-9.4a1.1,1.1,0,0,0-1.2,1.1,1.2,1.2,0,0,0,1.2,1.2,1.1,1.1,0,0,0,1.1-1.2A1.1,1.1,0,0,0,17.1,5.8Z"/></symbol><symbol id="italic" viewBox="0 0 24 24"><path d="m14.5 19v-.4a.8.8 0 0 0 -.8-1h-1.4l2.3-11.2h1.6a1.3 1.3 0 0 0 1.2-1v-.4a.8.8 0 0 0 -.8-1h-6a1.2 1.2 0 0 0 -1.1 1v-.2.8-.2a.8.8 0 0 0 .8 1h1.5l-2.4 11.2h-1.6a1.3 1.3 0 0 0 -1.2 1v-.2.8-.2a.8.8 0 0 0 .8 1h6a1.2 1.2 0 0 0 1.1-1z"/></symbol><symbol id="labs" viewBox="0 0 24 24"><path d="M20.5,17.7,15,11V5h1a1,1,0,0,0,0-2H8A1,1,0,0,0,7,4,.9.9,0,0,0,8,5H9v6L3.5,17.7A1.8,1.8,0,0,0,3,19a2,2,0,0,0,2,2H19a2,2,0,0,0,2-2A1.8,1.8,0,0,0,20.5,17.7Z"/></symbol><symbol id="language" viewBox="0 0 24 24"><path d="M12,2A10,10,0,1,0,22,12,10,10,0,0,0,12,2Zm6.9,6H16a17.8,17.8,0,0,0-1.4-3.6A8,8,0,0,1,18.9,8ZM12,4a14.7,14.7,0,0,1,1.9,4H10.1A14.7,14.7,0,0,1,12,4ZM4.3,14a6.8,6.8,0,0,1,0-4H7.6c0,.7-.1,1.3-.1,2s.1,1.3.1,2Zm.8,2H8a15.8,15.8,0,0,0,1.4,3.6A8,8,0,0,1,5.1,16ZM8,8H5.1A8,8,0,0,1,9.4,4.4,26.7,26.7,0,0,0,8,8Zm4,12a14.7,14.7,0,0,1-1.9-4h3.8A14.7,14.7,0,0,1,12,20Zm2.3-6H9.7a13.6,13.6,0,0,1-.2-2,12.3,12.3,0,0,1,.2-2h4.6a12.3,12.3,0,0,1,.2,2A13.6,13.6,0,0,1,14.3,14Zm.3,5.6A26.7,26.7,0,0,0,16,16h2.9A8.5,8.5,0,0,1,14.6,19.6ZM16.4,14c0-.7.1-1.3.1-2s-.1-1.3-.1-2h3.3a6.8,6.8,0,0,1,0,4Z"/></symbol><symbol id="left" viewBox="0 0 24 24"><path d="m16.1 4.1a1.4 1.4 0 0 0 -2.1 0l-6.9 6.9a1.4 1.4 0 0 0 0 2.1l6.9 6.8a1.4 1.4 0 0 0 2.1 0 1.4 1.4 0 0 0 0-2.1l-5.9-5.8 5.9-5.8a1.5 1.5 0 0 0 0-2.1z"/></symbol><symbol id="library" viewBox="0 0 24 24"><path d="M8.2,3.3l-3-.5A1,1,0,0,0,4,3.6H4L.9,21.3a1,1,0,0,0,.8,1.2h0l3,.5a1,1,0,0,0,1.2-.8h0L9,4.4A1,1,0,0,0,8.2,3.3Zm-2,11.3a.4.4,0,0,1-.6.4h0l-2-.3a.4.4,0,0,1-.4-.6h0L4.6,6.2a.4.4,0,0,1,.6-.4h0l2,.3a.4.4,0,0,1,.4.6h0ZM17,19h6v1H17Zm0-9h6v8H17Zm0,11h6v1a.9.9,0,0,1-1,1H18a.9.9,0,0,1-1-1ZM17,8h6V9H17Zm6-2V7H17V6a.9.9,0,0,1,1-1h4A.9.9,0,0,1,23,6ZM10,21h6v1a.9.9,0,0,1-1,1H11a.9.9,0,0,1-1-1ZM16,2V3H10V2a.9.9,0,0,1,1-1h4A.9.9,0,0,1,16,2ZM10,5h6V19H10Z"/></symbol><symbol id="lightbulb" viewBox="0 0 24 24"><path d="M9,19h6a0,0,0,0,1,0,0v2a2,2,0,0,1-2,2H11a2,2,0,0,1-2-2V19A0,0,0,0,1,9,19Z"/><path d="M12,2A7,7,0,0,0,5,9c0,2.8,4,6,4,9h2.5A17.2,17.2,0,0,0,8.8,9.8a.4.4,0,0,1,0-.5A.5.5,0,0,1,9.2,9h5.6a.5.5,0,0,1,.4.3.4.4,0,0,1,0,.5A17.2,17.2,0,0,0,12.5,18H15c0-3,4-6.2,4-9A7,7,0,0,0,12,2Z"/><path d="M10.1,10A22.8,22.8,0,0,1,12,14.6,22.8,22.8,0,0,1,13.9,10Z"/></symbol><symbol id="link" viewBox="0 0 24 24"><path d="M17,7H14a.9.9,0,0,0-1,1,.9.9,0,0,0,1,1h3a3.1,3.1,0,0,1,3,3,3.1,3.1,0,0,1-3,3H14a.9.9,0,0,0-1,1,1,1,0,0,0,1,1h3A5,5,0,0,0,17,7ZM8,12a.9.9,0,0,0,1,1h6a1,1,0,0,0,0-2H9A.9.9,0,0,0,8,12Zm2,3H7A3,3,0,0,1,7,9h3a.9.9,0,0,0,1-1,.9.9,0,0,0-1-1H7A5,5,0,0,0,7,17h3a1,1,0,0,0,1-1A.9.9,0,0,0,10,15Z"/></symbol><symbol id="lock" viewBox="0 0 24 24"><path d="M18,8H17V6A5,5,0,0,0,7,6V8H6a2,2,0,0,0-2,2V20a2,2,0,0,0,2,2H18a2,2,0,0,0,2-2V10A2,2,0,0,0,18,8Zm-6,9a2,2,0,1,1,2-2A2,2,0,0,1,12,17ZM9,8V6a3,3,0,0,1,6,0V8Z"/></symbol><symbol id="login" viewBox="0 0 24 24"><path d="M19,3H13a1,1,0,0,0-1,1h0a.9.9,0,0,0,1,1h6V19H13a1,1,0,0,0-1,1h0a1,1,0,0,0,1,1h6a2,2,0,0,0,2-2V5A2,2,0,0,0,19,3ZM10.8,16.3a1,1,0,0,0,1.4,0l3.6-3.6a1,1,0,0,0,0-1.4L12.2,7.7a1,1,0,0,0-1.4,1.4L12.7,11H4a1,1,0,0,0,0,2h8.7l-1.9,1.9A1,1,0,0,0,10.8,16.3Z"/></symbol><symbol id="logout" viewBox="0 0 24 24"><path d="M5,5h6a.9.9,0,0,0,1-1h0a1,1,0,0,0-1-1H5A2,2,0,0,0,3,5V19a2,2,0,0,0,2,2h6a1,1,0,0,0,1-1h0a1,1,0,0,0-1-1H5ZM15.8,16.3a1,1,0,0,0,1.4,0l3.6-3.6a1,1,0,0,0,0-1.4L17.2,7.7a1,1,0,0,0-1.4,1.4L17.7,11H9a1,1,0,0,0-1,1,.9.9,0,0,0,1,1h8.7l-1.9,1.9A1,1,0,0,0,15.8,16.3Z"/></symbol><symbol id="marker" viewBox="0 0 24 24"><path d="m9.7 9.5 4.3 4.3-6.6 6.5-.7-.7-1.4 1.4a2.1 2.1 0 0 1 -2.9 0 1.9 1.9 0 0 1 0-2.8l1.5-1.5-.8-.7zm11.6-5.8-1.5-1.5a1.9 1.9 0 0 0 -2.8 0l-6.2 6.2 4.2 4.3 6.3-6.2a2.1 2.1 0 0 0 0-2.8z" fill-rule="evenodd"/></symbol><symbol id="microsoft" viewBox="0 0 24 24"><path d="m3 3h8.5v8.5h-8.5z" fill="#ff3d00"/><path d="m3 12.5h8.5v8.5h-8.5z" fill="#00a6f5"/><path d="m12.5 3h8.5v8.5h-8.5z" fill="#6dbb00"/><path d="m12.5 12.5h8.5v8.5h-8.5z" fill="#ffb400"/></symbol><symbol id="more" viewBox="0 0 24 24"><path d="m12 8a2 2 0 1 0 -2-2 2 2 0 0 0 2 2zm0 2a2 2 0 1 0 2 2 2 2 0 0 0 -2-2zm0 6a2 2 0 1 0 2 2 2 2 0 0 0 -2-2z"/></symbol><symbol id="notes" viewBox="0 0 24 24"><path d="M6,2A2,2,0,0,0,4,4V20a2,2,0,0,0,2,2H18a2,2,0,0,0,2-2V8.8a2,2,0,0,0-.6-1.4L14.6,2.6A2,2,0,0,0,13.2,2Zm7,6V3.5L18.5,9H14A.9.9,0,0,1,13,8Z"/></symbol><symbol id="pause" viewBox="0 0 24 24"><path d="m8 19a2 2 0 0 0 2-2v-10a2 2 0 0 0 -2-2 2 2 0 0 0 -2 2v10a2 2 0 0 0 2 2zm6-12v10a2 2 0 0 0 2 2 2 2 0 0 0 2-2v-10a2 2 0 0 0 -2-2 2 2 0 0 0 -2 2z"/></symbol><symbol id="pen" viewBox="0 0 24 24"><path d="m15.9 11.8-3.7-3.7-7.8 7.7-1.2 1.3c-.2.1-.2.2-.2.4v3a.5.5 0 0 0 .5.5h3c.2 0 .3 0 .4-.2l2.8-2.7 1.1-1.2 1.7-1.6z"/><path d="m21.6 10.4c0-.4-.5-.9-.9-1.4s-.7-.6-.7-1 .4-.6.7-1h.1a1.4 1.4 0 0 0 .2-.6.9.9 0 0 0 -.3-.6l-2.3-2.5h-.1l-.6-.3a.9.9 0 0 0 -.7.3l-.5.5-3.4 3.3 3.8 3.8 1.4-1.4.9.9-3.5 3.6a.8.8 0 0 0 -.3.7 1.1 1.1 0 0 0 1 1 1.1 1.1 0 0 0 .7-.3l3.4-3.5c.6-.5 1.1-1 1.1-1.5z"/></symbol><symbol id="pinterest" viewBox="0 0 24 24"><path d="M12,2A10,10,0,0,0,2,12a9.9,9.9,0,0,0,6.4,9.3,9.4,9.4,0,0,1,0-2.9c.2-.7,1.2-4.9,1.2-4.9A3.6,3.6,0,0,1,9.3,12c0-1.4.8-2.4,1.8-2.4s1.2.6,1.2,1.4a19.3,19.3,0,0,1-.8,3.3A1.5,1.5,0,0,0,13,16.1c1.8,0,3.1-1.9,3.1-4.6a3.9,3.9,0,0,0-4.1-4,4.3,4.3,0,0,0-4.6,4.3,4,4,0,0,0,.8,2.3.4.4,0,0,1,.1.3L8,15.5c-.1.2-.2.2-.4.1s-2-2.4-2-3.8c0-3.2,2.3-6.1,6.6-6.1a5.9,5.9,0,0,1,6.2,5.8c0,3.4-2.2,6.2-5.2,6.2a2.7,2.7,0,0,1-2.3-1.1l-.6,2.3A11.3,11.3,0,0,1,9,21.6a15.4,15.4,0,0,0,3,.4A10,10,0,0,0,12,2Z"/></symbol><symbol id="play" viewBox="0 0 24 24"><path d="M8,6.8V17.2a.9.9,0,0,0,1.5.8l8.2-5.2a1,1,0,0,0,0-1.7L9.5,6A1,1,0,0,0,8,6.8Z"/></symbol><symbol id="plus" viewBox="0 0 24 24"><path d="M12,2A10,10,0,1,0,22,12,10,10,0,0,0,12,2Zm4,11H13v3a1,1,0,0,1-2,0V13H8a1,1,0,0,1,0-2h3V8a1,1,0,0,1,2,0v3h3a1,1,0,0,1,0,2Z"/></symbol><symbol id="power" viewBox="0 0 24 24"><rect x="14" y="3" width="7" height="7" rx="1" opacity=".4"/><rect x="4" y="7" width="9" height="14" rx="1" opacity=".4"/></symbol><symbol id="progress" viewBox="0 0 24 24"><circle cx="4.5" cy="12" r="2"/><circle cx="4.5" cy="6" r="2"/><circle cx="4.5" cy="18" r="2"/><path d="m9.5 19h11a1.1 1.1 0 0 0 1-1 1.1 1.1 0 0 0 -1-1h-11a1 1 0 0 0 -1 1 1 1 0 0 0 1 1z"/><path d="m9.5 13h11a1 1 0 0 0 1-1 1 1 0 0 0 -1-1h-11a.9.9 0 0 0 -1 1 .9.9 0 0 0 1 1z"/><path d="m8.5 6a.9.9 0 0 0 1 1h11a1 1 0 0 0 1-1 1 1 0 0 0 -1-1h-11a.9.9 0 0 0 -1 1z"/></symbol><symbol id="protractor" viewBox="0 0 24 24"><path d="M22.2,6.7a10.9,10.9,0,0,0-7.7-3.2h-.1A10.9,10.9,0,0,0,6.7,6.7a10.5,10.5,0,0,0-3.2,7.7h0a10.5,10.5,0,0,0,3.2,7.7.9.9,0,0,0,.7.3,1.1,1.1,0,0,0,.7-.3L22.2,8.1a1,1,0,0,0,0-1.4ZM7.4,20.1a9.3,9.3,0,0,1-1.9-4.6h3a1.1,1.1,0,0,0,1-1,1,1,0,0,0-1-1h-3A8.6,8.6,0,0,1,7.4,8.9l2.1,2a1.1,1.1,0,0,0,.7.3.9.9,0,0,0,.7-.3,1,1,0,0,0,0-1.4L8.8,7.4a9.2,9.2,0,0,1,4.7-1.9v3a1,1,0,0,0,1,1,1.1,1.1,0,0,0,1-1v-3a9.3,9.3,0,0,1,4.6,1.9Z"/></symbol><symbol id="reddit" viewBox="0 0 24 24"><path d="M22,11.8a2.2,2.2,0,0,0-2.2-2.2,2,2,0,0,0-1.5.6,12,12,0,0,0-5.9-1.7l1.3-3.9,3.3.8h0a1.8,1.8,0,1,0,1.8-1.8,1.8,1.8,0,0,0-1.7,1.1L13.5,4c-.1-.1-.3,0-.3.2L11.8,8.5a11.5,11.5,0,0,0-6.1,1.7,2,2,0,0,0-1.5-.6A2.2,2.2,0,0,0,2,11.8a2.1,2.1,0,0,0,1.1,1.9c0,.2-.1.5-.1.7,0,3.3,4,5.9,9,5.9s8.9-2.6,8.9-5.9a2,2,0,0,0-.1-.7A2,2,0,0,0,22,11.8ZM7.6,13.3A1.3,1.3,0,0,1,9,12a1.3,1.3,0,0,1,1.3,1.3A1.3,1.3,0,0,1,9,14.6,1.3,1.3,0,0,1,7.6,13.3Zm7.6,3.9a4.2,4.2,0,0,1-3.2,1h0a4.2,4.2,0,0,1-3.2-1,.3.3,0,0,1,.4-.4,4.3,4.3,0,0,0,2.8.8h0a4.3,4.3,0,0,0,2.8-.8.3.3,0,0,1,.4.4ZM15,14.6a1.3,1.3,0,0,1-1.3-1.3A1.3,1.3,0,0,1,15,12a1.3,1.3,0,0,1,1.4,1.3A1.3,1.3,0,0,1,15,14.6Z"/></symbol><symbol id="redo" viewBox="0 0 24 24"><path d="M18.4,10.6a10.5,10.5,0,0,0-14.8,1,11.4,11.4,0,0,0-1.5,2.3,1.2,1.2,0,0,0,.6,1.7h.1A1.2,1.2,0,0,0,4.3,15,8,8,0,0,1,15,11.3a9.1,9.1,0,0,1,1.6,1.1l-1.9,1.9a1,1,0,0,0,0,1.4.9.9,0,0,0,.7.3H21a.9.9,0,0,0,1-1V9.4a1,1,0,0,0-1-1,.9.9,0,0,0-.7.3Z"/></symbol><symbol id="reset" viewBox="0 0 24 24"><path d="M5,20a2,2,0,0,0,2,2h9c1.1,0,3-.9,3-2V6H5ZM6.5,10l1.3,1.3A5,5,0,0,1,12,9a5,5,0,0,1,0,10,4.8,4.8,0,0,1-4.1-2.2.7.7,0,0,1,.2-1,.6.6,0,0,1,1,.2A3.6,3.6,0,0,0,12,17.5a3.5,3.5,0,0,0,0-7,3.4,3.4,0,0,0-3.1,1.9L10.5,14H7a.5.5,0,0,1-.5-.5Z"/><path d="M19,3H15.5l-.7-.7a1.1,1.1,0,0,0-.7-.3H9.9a1.1,1.1,0,0,0-.7.3L8.5,3H5A1.1,1.1,0,0,0,4,4,1.1,1.1,0,0,0,5,5H19a1.1,1.1,0,0,0,1-1A1.1,1.1,0,0,0,19,3Z"/></symbol><symbol id="restart" viewBox="0 0 24 24"><path d="M5.7,5.7A1,1,0,0,0,4,6.4V10a1,1,0,0,0,1,1H8.6a1,1,0,0,0,.7-1.7L7.8,7.8A5.8,5.8,0,0,1,12,6a5.9,5.9,0,0,1,5.8,7.3,5.7,5.7,0,0,1-4.4,4.5,5.8,5.8,0,0,1-6.8-3.3,1.1,1.1,0,0,0-.9-.5,1,1,0,0,0-.9,1.4,7.9,7.9,0,0,0,15.1-4.3A8.1,8.1,0,0,0,12.8,4,8.1,8.1,0,0,0,6.4,6.3Z"/></symbol><symbol id="right" viewBox="0 0 24 24"><path d="m7.9 4.1a1.4 1.4 0 0 0 0 2.1l5.9 5.8-5.9 5.8a1.5 1.5 0 0 0 0 2.1 1.4 1.4 0 0 0 2.1 0l6.9-6.8a1.6 1.6 0 0 0 0-2.2l-6.9-6.8a1.4 1.4 0 0 0 -2.1 0z"/></symbol><symbol id="ruler" viewBox="0 0 24 24"><path d="m17.7 2.1-1.1 1.1 1.6 1.6a.7.7 0 0 1 0 1 .8.8 0 0 1 -1.1 0l-1.6-1.6-1.4 1.4.9.9a.8.8 0 0 1 -1.1 1.1l-.8-.9-1.5 1.4 1.6 1.6a.8.8 0 0 1 0 1.1.7.7 0 0 1 -1 0l-1.6-1.6-1.4 1.4.9.9a.9.9 0 0 1 0 1 .8.8 0 0 1 -1.1 0l-.9-.9-1.4 1.5 1.6 1.6a.7.7 0 0 1 0 1 .8.8 0 0 1 -1.1 0l-1.6-1.6-1.4 1.4.9.9a.8.8 0 0 1 -1.1 1.1l-.8-.9-1.1 1.1a1 1 0 0 0 0 1.4l2.8 2.8a1 1 0 0 0 1.4 0l15.6-15.6a1 1 0 0 0 0-1.4l-2.8-2.8a1 1 0 0 0 -1.4 0z"/></symbol><symbol id="screenshot" viewBox="0 0 24 24"><path d="M21.2,16H19V10.5a1,1,0,0,0-1-1,.9.9,0,0,0-1,1V16H14.8a1,1,0,0,0-.8,1.7L17.3,21a1.2,1.2,0,0,0,1.4,0L22,17.7A1,1,0,0,0,21.2,16Z"/><path d="M12.8,17H6a.5.5,0,0,1-.4-.8l1.9-2.6a.6.6,0,0,1,.9,0L10,16l2.6-3.5a.5.5,0,0,1,.8,0l2,2.5H16V10.5a2,2,0,0,1,2-2,1.7,1.7,0,0,1,1,.3V5a2,2,0,0,0-2-2H5A2,2,0,0,0,3,5V17a2,2,0,0,0,2,2h8.9l-.6-.6A2.4,2.4,0,0,1,12.8,17Z"/></symbol><symbol id="search" viewBox="0 0 24 24"><path d="M21.6,19.4l-4-4a1.6,1.6,0,0,0-1.5-.3l-.8-.9A7,7,0,0,0,17,9.5,7.6,7.6,0,0,0,9.5,2,7.6,7.6,0,0,0,2,9.5,7.6,7.6,0,0,0,9.5,17a7,7,0,0,0,4.7-1.7l.9.8a1.6,1.6,0,0,0,.3,1.5l4,4a1.7,1.7,0,0,0,2.2,0A1.8,1.8,0,0,0,21.6,19.4ZM9.5,14A4.5,4.5,0,1,1,14,9.5,4.5,4.5,0,0,1,9.5,14Z"/></symbol><symbol id="settings" viewBox="0 0 24 24"><path d="M19.5,12v-.7l1.8-1.4a1.1,1.1,0,0,0,.3-1.3L19.7,5.4A.9.9,0,0,0,18.5,5l-2.2.9-1.2-.7-.2-2.3a1.1,1.1,0,0,0-1-.9H10.1a1.1,1.1,0,0,0-1,.9L8.9,5.2l-1.2.7L5.5,5a.9.9,0,0,0-1.2.4L2.4,8.6a1.1,1.1,0,0,0,.3,1.3l1.8,1.4v1.4L2.7,14.1a1.1,1.1,0,0,0-.3,1.3l1.9,3.2a.9.9,0,0,0,1.2.4l2.2-.9,1.2.7.2,2.3a1.1,1.1,0,0,0,1,.9h3.8a1.1,1.1,0,0,0,1-.9l.2-2.3,1.2-.7,2.2.9a.9.9,0,0,0,1.2-.4l1.9-3.2a1.1,1.1,0,0,0-.3-1.3l-1.8-1.4ZM12,15.5a3.5,3.5,0,0,1,0-7,3.5,3.5,0,0,1,0,7Z"/></symbol><symbol id="share" viewBox="0 0 24 24"><path d="M18,16a2.8,2.8,0,0,0-2,.8L8.9,12.7A1.7,1.7,0,0,0,9,12a1.7,1.7,0,0,0-.1-.7L16,7.2A2.8,2.8,0,0,0,18,8a2.9,2.9,0,0,0,3-3,3,3,0,0,0-6,0,1.7,1.7,0,0,0,.1.7L8,9.8A2.8,2.8,0,0,0,6,9a3,3,0,0,0,0,6,2.8,2.8,0,0,0,2-.8l7.1,4.1a1.7,1.7,0,0,0-.1.7,3,3,0,1,0,3-3Z"/></symbol><symbol id="shop" viewBox="0 0 24 24"><path d="M17.2,9,12.8,2.4a1,1,0,0,0-1.6,0L6.8,9H2a1,1,0,0,0-1,1.3l2.8,10a1,1,0,0,0,1,.7H19.3a1,1,0,0,0,.9-.7l2.8-10A1,1,0,0,0,22,9ZM12,4.8,14.8,9H9.2ZM12,17a2,2,0,1,1,2-2A2,2,0,0,1,12,17Z"/></symbol><symbol id="sqrt" viewBox="0 0 24 24"><rect x="12" y="7" width="8" height="12" rx="1" opacity=".4"/><path d="M8,21a1,1,0,0,1-.9-.7L4.6,12.9l-.9.8a1,1,0,0,1-1.4,0,1,1,0,0,1,0-1.4l2-2a.8.8,0,0,1,.9-.3,1,1,0,0,1,.7.7l1.7,4.8L9,3.9A1.1,1.1,0,0,1,10,3H21a.9.9,0,0,1,1,1,.9.9,0,0,1-1,1H10.9L9,20.1a1.1,1.1,0,0,1-.9.9Z"/></symbol><symbol id="star" viewBox="0 0 24 24"><path d="M12,17.3l5.2,3.1a.5.5,0,0,0,.7-.6L16.5,14l4.6-4a.5.5,0,0,0-.3-.9l-6-.5L12.5,3.1a.6.6,0,0,0-1,0L9.2,8.6l-6,.5a.5.5,0,0,0-.3.9l4.6,4L6.1,19.9a.5.5,0,0,0,.7.5Z"/></symbol><symbol id="students" viewBox="0 0 24 24"><path d="M12,12.8a10.5,10.5,0,0,1,4.2.8A3.1,3.1,0,0,1,18,16.4V17a1.1,1.1,0,0,1-1,1H7a1,1,0,0,1-1-1v-.6a2.8,2.8,0,0,1,1.8-2.7A9,9,0,0,1,12,12.8ZM4,13a2,2,0,1,0-2-2A2,2,0,0,0,4,13Zm1.1,1.1H4a6.7,6.7,0,0,0-2.8.6A2,2,0,0,0,0,16.4V17a1,1,0,0,0,1,1H4.5V16.4A4.6,4.6,0,0,1,5.1,14.1ZM20,13a2,2,0,1,0-2-2A2,2,0,0,0,20,13Zm4,3.4a2,2,0,0,0-1.2-1.8A6.7,6.7,0,0,0,20,14H18.9a4.6,4.6,0,0,1,.6,2.3V18H23a1.1,1.1,0,0,0,1-1ZM12,6a2.9,2.9,0,0,1,3,3A3,3,0,0,1,9,9,2.9,2.9,0,0,1,12,6Z"/></symbol><symbol id="supervisor" viewBox="0 0 24 24"><path d="m22 19v-.4a2 2 0 0 0 -1.2-1.8 9.4 9.4 0 0 0 -7.6 0 2 2 0 0 0 -1.2 1.8v.4a1 1 0 0 0 1 1h8a1.1 1.1 0 0 0 1-1z"/><path d="m10 4a4 4 0 1 0 4 4 4 4 0 0 0 -4-4z"/><path d="m13 13.4a11.3 11.3 0 0 0 -3-.4c-2.7 0-8 1.3-8 4v2a1.1 1.1 0 0 0 1 1h7v-1.4a4.1 4.1 0 0 1 3-3.9z"/><circle cx="17" cy="12.5" r="2.5"/></symbol><symbol id="teacher" viewBox="0 0 24 24"><path d="m22.4 5.9-9-3.7a4.5 4.5 0 0 0 -2.8 0l-9 3.7c-.8.3-.8.9 0 1.2l3.8 1.5 6.4-2.6a.6.6 0 0 1 .7.3.6.6 0 0 1 -.3.7l-5.5 2.2 3.9 1.6a4.5 4.5 0 0 0 2.8 0l9-3.7c.8-.3.8-.9 0-1.2z"/><path d="m6 18h1v-2.3l-1-.4z"/><path d="m6 19-2 2c0 .6 1.1 1 2.5 1s2.5-.4 2.5-1l-2-2z"/><path d="m4 9.1v3.9c0 .9.8 1.7 2 2.3v-5.3z"/><path d="m12.7 11.9h-1.2l-1.3-.3-3.2-1.2v5.3a15 15 0 0 0 5 .8c4.4 0 8-1.6 8-3.5v-3.9l-6.2 2.6z"/></symbol><symbol id="text" viewBox="0 0 24 24"><path d="M22,5V3a.9.9,0,0,0-1-1H19a.9.9,0,0,0-1,1H6A.9.9,0,0,0,5,2H3A.9.9,0,0,0,2,3V5A.9.9,0,0,0,3,6V18a.9.9,0,0,0-1,1v2a.9.9,0,0,0,1,1H5a.9.9,0,0,0,1-1H18a.9.9,0,0,0,1,1h2a.9.9,0,0,0,1-1V19a.9.9,0,0,0-1-1V6A.9.9,0,0,0,22,5ZM19,18a.9.9,0,0,0-1,1H6a.9.9,0,0,0-1-1V6A.9.9,0,0,0,6,5H18a.9.9,0,0,0,1,1Z"/><path d="M15,7H9A.9.9,0,0,0,8,8,.9.9,0,0,0,9,9h2v7a1,1,0,0,0,2,0V9h2a.9.9,0,0,0,1-1A.9.9,0,0,0,15,7Z"/></symbol><symbol id="tree" viewBox="0 0 24 24"><path d="M17,11h3a1.9994,1.9994,0,0,0,2-2V5a1.9994,1.9994,0,0,0-2-2H17a1.9994,1.9994,0,0,0-2,2V6H9.01V5a1.9994,1.9994,0,0,0-2-2H4A2.0059,2.0059,0,0,0,2,5V9a1.9994,1.9994,0,0,0,2,2H7A1.9994,1.9994,0,0,0,9,9V8h2v7.01A2.9917,2.9917,0,0,0,13.99,18H15v1a1.9994,1.9994,0,0,0,2,2h3a1.9994,1.9994,0,0,0,2-2V15a1.9994,1.9994,0,0,0-2-2H17a1.9994,1.9994,0,0,0-2,2v1H13.99a.9988.9988,0,0,1-.99-.99V8h2V9A2.0059,2.0059,0,0,0,17,11Z"/></symbol><symbol id="trophy" viewBox="0 0 24 24"><path d="M16,12.9A5.9,5.9,0,0,0,21,7a2,2,0,0,0-2-2H17V4a.9.9,0,0,0-1-1H8A.9.9,0,0,0,7,4V5H5A2,2,0,0,0,3,7a5.9,5.9,0,0,0,5,5.9A4.6,4.6,0,0,0,11,16v3H8a1,1,0,0,0,0,2h8a1,1,0,0,0,0-2H13V16A4.6,4.6,0,0,0,16,12.9ZM17,7h2a4,4,0,0,1-2.3,3.6A20.2,20.2,0,0,0,17,7ZM5,7H7a20.2,20.2,0,0,0,.3,3.6A4,4,0,0,1,5,7Zm7,3.4-1.3.8c-.1,0-.2,0-.2-.2l.4-1.4-1.2-1c-.1-.1,0-.2.1-.2l1.5-.2.6-1.3c0-.1.2-.1.2,0l.6,1.3,1.5.2c.1,0,.2.1.1.2l-1.2,1,.4,1.4c0,.2-.1.2-.2.2Z"/></symbol><symbol id="tumbler" viewBox="0 0 24 24"><path d="M18.3,16.6H15.5c-.2,0-.2-.4-.2-.5V11.2h3.4V6.3H15.3v-4c0-.1,0-.1-.1-.1H9.3a1,1,0,0,0-1,.9C8.1,5.2,6.8,6.3,4.8,7H4.5v4H7v5.1C7,20.2,9.5,22,14.5,22c2,0,4.2-.7,4.9-1.6h.1Zm.2,3.5a5.4,5.4,0,0,1-3.3,1.1H15c-4,0-4.7-3.1-4.7-4.9V10.4H7.9a.1.1,0,0,1-.1-.1V7.7h.1A5.1,5.1,0,0,0,11.4,3a.2.2,0,0,1,.2-.2h2.8a.1.1,0,0,1,.1.1v4h3.3v3.2H14.5V16c0,1.2.6,1.8,1.7,1.8a3.2,3.2,0,0,0,1.4-.3c.1,0,.1,0,.1.1l.9,2.4Z"/></symbol><symbol id="twitter" viewBox="0 0 24 24"><path d="M22,5.8a6.7,6.7,0,0,1-2.4.7,4.3,4.3,0,0,0,1.9-2.3,9.9,9.9,0,0,1-2.7,1A4.1,4.1,0,0,0,13,4.9a4.3,4.3,0,0,0-1.2,4A11.3,11.3,0,0,1,3.4,4.7a4,4,0,0,0,1.2,5.4,4.1,4.1,0,0,1-1.8-.5,4.3,4.3,0,0,0,3.3,4.1,3.7,3.7,0,0,1-1.8,0,4.1,4.1,0,0,0,3.8,2.9A8.8,8.8,0,0,1,2,18.3a11.6,11.6,0,0,0,16.1-3.5,12.1,12.1,0,0,0,1.8-6.9A7,7,0,0,0,22,5.8Z"/></symbol><symbol id="unassign" viewBox="0 0 24 24"><path d="M19,3H14.8A3,3,0,0,0,9.2,3H5A2,2,0,0,0,3,5V19a2,2,0,0,0,2,2H19a2,2,0,0,0,2-2V5A2,2,0,0,0,19,3Zm-7-.2a.8.8,0,0,1,.8.7.8.8,0,0,1-1.6,0A.8.8,0,0,1,12,2.8Zm3.7,11.5a1,1,0,0,1,0,1.4,1,1,0,0,1-1.4,0L12,13.4,9.7,15.7a1,1,0,0,1-1.4,0,1,1,0,0,1,0-1.4L10.6,12,8.3,9.7A1,1,0,0,1,9.7,8.3L12,10.6l2.3-2.3a1,1,0,0,1,1.4,1.4L13.4,12Z"/></symbol><symbol id="underline" viewBox="0 0 24 24"><path d="M5,20H5a1,1,0,0,0,1,1H18a1.1,1.1,0,0,0,1-1h0a1.1,1.1,0,0,0-1-1H6A1,1,0,0,0,5,20Z"/><path d="M17,3h-.7a1,1,0,0,0-1,1v8.5A3,3,0,0,1,12,15.7a3,3,0,0,1-3.3-3.2V4a1,1,0,0,0-1-1H7A.9.9,0,0,0,6,4v8.6c0,3.3,2.4,5.6,6,5.6s6-2.3,6-5.6V4A.9.9,0,0,0,17,3Z"/></symbol><symbol id="undo" viewBox="0 0 24 24"><path d="M12.5,8a10.4,10.4,0,0,0-6.9,2.6L3.7,8.7a1,1,0,0,0-1.4,0,.9.9,0,0,0-.3.7V15a.9.9,0,0,0,1,1H8.6a1,1,0,0,0,1-1,.9.9,0,0,0-.3-.7L7.4,12.4a8,8,0,0,1,11.3,1,8.6,8.6,0,0,1,1,1.6,1.2,1.2,0,0,0,1.5.6,1.1,1.1,0,0,0,.9-1.5v-.2A10.7,10.7,0,0,0,12.5,8Z"/></symbol><symbol id="unlocked" viewBox="0 0 24 24"><path d="M0,24V0H24" fill="none"/><path d="M18,8H17V6a5,5,0,0,0-5-5A4.8,4.8,0,0,0,7.2,4.8.9.9,0,0,0,7.9,6a1,1,0,0,0,1.2-.8A2.9,2.9,0,0,1,12,3a3,3,0,0,1,3,3V8H6a2,2,0,0,0-2,2V20a2,2,0,0,0,2,2H18a2,2,0,0,0,2-2V10A2,2,0,0,0,18,8Zm-6,9a2,2,0,1,1,2-2A2,2,0,0,1,12,17Z"/></symbol><symbol id="up" viewBox="0 0 24 24"><path d="m19.9 16.1a1.4 1.4 0 0 0 0-2.1l-6.9-6.9a1.4 1.4 0 0 0 -2.1 0l-6.8 6.9a1.4 1.4 0 0 0 0 2.1 1.4 1.4 0 0 0 2.1 0l5.8-5.9 5.8 5.9a1.5 1.5 0 0 0 2.1 0z"/></symbol><symbol id="upload" viewBox="0 0 24 24"><path d="M19,11A7,7,0,0,0,5.3,9.1,5.5,5.5,0,0,0,6.5,20h12A4.5,4.5,0,0,0,23,15.5,4.5,4.5,0,0,0,19,11Zm-6,2v2a.9.9,0,0,1-1,1h0a.9.9,0,0,1-1-1V13H9.2a.5.5,0,0,1-.3-.9l2.7-2.7a.6.6,0,0,1,.8,0l2.7,2.7a.5.5,0,0,1-.3.9Z"/></symbol><symbol id="user" viewBox="0 0 24 24"><path d="M12,12A4.5,4.5,0,1,0,7.5,7.5,4.5,4.5,0,0,0,12,12Zm7.3,2.8a15.7,15.7,0,0,0-14.6,0,3.4,3.4,0,0,0-1.8,3v2.1A1.1,1.1,0,0,0,4,21H20a1.1,1.1,0,0,0,1.1-1.1V17.8A3.4,3.4,0,0,0,19.3,14.8Z"/></symbol><symbol id="users" viewBox="0 0 24 24"><path d="m0 0h24v24h-24z" fill="none"/><path d="m0 0h24v24h-24z" fill="none"/><path d="m16.67 13.13a4.6509 4.6509 0 0 1 2.33 3.87v3h3a1.0029 1.0029 0 0 0 1-1v-2c0-2.18-3.57-3.47-6.33-3.87z" fill-rule="evenodd"/><circle cx="9" cy="8" r="4"/><g fill-rule="evenodd"><path d="m15 12a4 4 0 0 0 0-8 4.1782 4.1782 0 0 0 -1.33.24 5.98 5.98 0 0 1 0 7.52 4.1782 4.1782 0 0 0 1.33.24z"/><path d="m9 13c-2.67 0-8 1.34-8 4v2a1.0029 1.0029 0 0 0 1 1h14a1.0029 1.0029 0 0 0 1-1v-2c0-2.66-5.33-4-8-4z"/></g></symbol><symbol id="verified" viewBox="0 0 24 24"><path d="m11.3 2.3-6 2.2a2.1 2.1 0 0 0 -1.3 1.9v4.7c0 5.1 3.4 9.8 8 10.9 4.6-1.1 8-5.9 8-10.9v-4.7a2.1 2.1 0 0 0 -1.3-1.9l-6-2.2a1.7 1.7 0 0 0 -1.4 0zm-1.1 12.5-2.1-2.1a1 1 0 0 1 0-1.4 1 1 0 0 1 1.4 0l1.4 1.4 3.6-3.5a1 1 0 0 1 1.4 0 1 1 0 0 1 0 1.4l-4.3 4.2a1 1 0 0 1 -1.4 0z"/></symbol><symbol id="warning" viewBox="0 0 24 24"><path d="M12,20.4a2.6,2.6,0,0,1-2.6-2.6,2.7,2.7,0,0,1,.7-1.9L9.7,11V7.5h4.8v3.4l-.4,5a2.7,2.7,0,0,1,.7,1.9A2.6,2.6,0,0,1,12,20.4Z" fill="#fff"/><path d="M22.1,19.5l-9.2-16a1,1,0,0,0-1.8,0l-9.2,16A1,1,0,0,0,2.7,21H21.3A1,1,0,0,0,22.1,19.5Zm-8.7-11v2.4l-.4,4.4H11.1l-.4-4.4V8.5ZM12,19.4a1.6,1.6,0,0,1-1.6-1.6,1.6,1.6,0,1,1,3.2,0A1.6,1.6,0,0,1,12,19.4Z"/></symbol><symbol id="widgets" viewBox="0 0 24 24"><path d="M13,14v6a1,1,0,0,0,1,1h6a1.1,1.1,0,0,0,1-1V14a1,1,0,0,0-1-1H14A.9.9,0,0,0,13,14ZM4,21h6a1,1,0,0,0,1-1V14a.9.9,0,0,0-1-1H4a1,1,0,0,0-1,1v6A1.1,1.1,0,0,0,4,21ZM3,4v6a1,1,0,0,0,1,1h6a.9.9,0,0,0,1-1V4a1,1,0,0,0-1-1H4A1.1,1.1,0,0,0,3,4ZM15.9,2.4,11.7,6.6a1.1,1.1,0,0,0,0,1.5l4.2,4.2a1.1,1.1,0,0,0,1.5,0l4.2-4.2a1.1,1.1,0,0,0,0-1.5L17.4,2.4A1.1,1.1,0,0,0,15.9,2.4Z"/></symbol><symbol id="youtube" viewBox="0 0 24 24"><path d="M18.3,4.7a88.3,88.3,0,0,0-12.6,0C2.4,4.9,2,6.8,2,12s.4,7.1,3.7,7.3a88.3,88.3,0,0,0,12.6,0c3.3-.2,3.7-2.1,3.7-7.3S21.6,4.9,18.3,4.7ZM9.5,15.3V8.7L16.2,12Z"/></symbol><symbol id="zoom-in" viewBox="0 0 24 24"><path d="M10.5,8.5V6a.9.9,0,0,0-1-1,.9.9,0,0,0-1,1V8.5H6a.9.9,0,0,0-1,1,.9.9,0,0,0,1,1H8.5V13a.9.9,0,0,0,1,1,.9.9,0,0,0,1-1V10.5H13a.9.9,0,0,0,1-1,.9.9,0,0,0-1-1Z"/><path d="M21.6,19.4l-4-4a1.6,1.6,0,0,0-1.5-.3l-.8-.9A7,7,0,0,0,17,9.5,7.6,7.6,0,0,0,9.5,2,7.6,7.6,0,0,0,2,9.5,7.6,7.6,0,0,0,9.5,17a7,7,0,0,0,4.7-1.7l.9.8a1.6,1.6,0,0,0,.3,1.5l4,4a1.7,1.7,0,0,0,2.2,0A1.8,1.8,0,0,0,21.6,19.4ZM9.5,15A5.5,5.5,0,0,1,4,9.5,5.5,5.5,0,0,1,9.5,4,5.5,5.5,0,0,1,15,9.5,5.5,5.5,0,0,1,9.5,15Z"/></symbol><symbol id="zoom-out" viewBox="0 0 24 24"><path d="M6,8.5a.9.9,0,0,0-1,1,.9.9,0,0,0,1,1h7a.9.9,0,0,0,1-1,.9.9,0,0,0-1-1Z"/><path d="M21.6,19.4l-4-4a1.6,1.6,0,0,0-1.5-.3l-.8-.9A7,7,0,0,0,17,9.5,7.6,7.6,0,0,0,9.5,2,7.6,7.6,0,0,0,2,9.5,7.6,7.6,0,0,0,9.5,17a7,7,0,0,0,4.7-1.7l.9.8a1.6,1.6,0,0,0,.3,1.5l4,4a1.7,1.7,0,0,0,2.2,0A1.8,1.8,0,0,0,21.6,19.4ZM9.5,15A5.5,5.5,0,0,1,4,9.5,5.5,5.5,0,0,1,9.5,4,5.5,5.5,0,0,1,15,9.5,5.5,5.5,0,0,1,9.5,15Z"/></symbol></svg>